<svg xmlns="http://www.w3.org/2000/svg" width="54" height="51" viewBox="0 0 54 51">
  <metadata><?xpacket begin="﻿" id="W5M0MpCehiHzreSzNTczkc9d"?>
<x:xmpmeta xmlns:x="adobe:ns:meta/" x:xmptk="Adobe XMP Core 5.6-c138 79.159824, 2016/09/14-01:09:01        ">
   <rdf:RDF xmlns:rdf="http://www.w3.org/1999/02/22-rdf-syntax-ns#">
      <rdf:Description rdf:about=""/>
   </rdf:RDF>
</x:xmpmeta>
                                                                                                    
                                                                                                    
                                                                                                    
                                                                                                    
                                                                                                    
                                                                                                    
                                                                                                    
                                                                                                    
                                                                                                    
                                                                                                    
                                                                                                    
                                                                                                    
                                                                                                    
                                                                                                    
                                                                                                    
                                                                                                    
                                                                                                    
                                                                                                    
                                                                                                    
                                                                                                    
                           
<?xpacket end="w"?></metadata>
<defs>
    <style>
      .cls-1 {
        fill: #68c061;
        fill-rule: evenodd;
      }
    </style>
  </defs>
  <path class="cls-1" d="M41.071,50.728a12.617,12.617,0,1,1,12.9-12.614A12.759,12.759,0,0,1,41.071,50.728Zm6.588-14.213H34.269v2.68h13.39m0.085,0v-2.68M9.411,9.446H14.1V13H9.411V9.446ZM33.9,7.269a3.479,3.479,0,0,0-3.518-3.44H7.2a3.479,3.479,0,0,0-3.518,3.44v22.7A3.48,3.48,0,0,0,7.2,33.41H27a9.045,9.045,0,0,0-1.058,3.557H7.066A6.959,6.959,0,0,1,.03,30.087V7.152A6.959,6.959,0,0,1,7.066.271H30.518a6.959,6.959,0,0,1,7.036,6.881V23.645c-1.69.392-2.233,1.049-3.653,1.941V7.269ZM16.447,9.446H28.173V13H16.447V9.446Zm-7.036,7.21H14.1v3.557H9.411V16.656Zm7.036,0H28.173v3.557H16.447V16.656Zm-7.036,7.21H14.1v3.557H9.411V23.866Zm7.036,0H28.173v3.557H16.447V23.866Z"/>
</svg>
